<svg xmlns="http://www.w3.org/2000/svg" viewBox="0 0 64 64" width="64" height="64" role="img" aria-label="So Raven">
  <rect x="2" y="2" width="60" height="60" rx="15" fill="#141010" stroke="#c8202a" stroke-width="2"/>
  <g stroke="#ee1c25" stroke-linecap="round" stroke-linejoin="round">
    <!-- chef toque: dark fill + red outline -->
    <g fill="#141010" stroke-width="2">
      <path d="M22 39 C15.5 39 15 31 20.6 29.3 C18.3 21.6 26.6 18 31.2 22.6 C35.8 18 44.4 19.6 45.4 27.8 C51 28.9 49.2 39 42.2 39 Z"/>
      <rect x="21" y="37.5" width="21.5" height="9" rx="2.6"/>
    </g>
    <!-- pleats -->
    <g fill="none" stroke-width="1.5" opacity="0.85">
      <path d="M27.5 25 C27 29 27 33 27.4 36.5"/>
      <path d="M36.4 25 C37 29 37 33 36.4 36.5"/>
    </g>
    <!-- crossed knives (the X) on the band -->
    <g fill="none" stroke-width="2.8">
      <line x1="27" y1="38" x2="36.5" y2="46.5"/>
      <line x1="36.5" y1="38" x2="27" y2="46.5"/>
    </g>
  </g>
</svg>
